<svg xmlns="http://www.w3.org/2000/svg" viewBox="0 0 283.99 343.98"><defs><style>.cls-1{fill:#c7c6be;stroke:#231f20;stroke-miterlimit:10;}</style></defs><title>palmZone</title><g id="Layer_2" data-name="Layer 2"><g id="Base"><path class="cls-1" d="M198,333.32s2.19,5-1.86,8.28-8.79-1.77-8.79-1.77-1.78,4-14,3.63-18.59-2.62-35.66-5.41-35.07-3-51.8-8.36S64,318.7,63.3,313.21s-.17-22.9-3-45.21S55.19,237.24,54,223.71s-3.89-20.11-3.89-20.11H46.74s-4.9-15.89-8.79-35.49a7.71,7.71,0,0,1-3.46-3.38c-1.61-2.71-3.64-5.75-5.58-6.68A32.66,32.66,0,0,0,27,150.28h1.19s-1.23-2.24-4-11.37S8.42,94.55,13.49,96.19C9.56,87.83,2.84,71.6.94,64.63S3.6,46.5,9.68,42.32A18.05,18.05,0,0,1,21.6,39s8.49-.76,11.28,7.36c4.31,4.56,4.18,7.48,6.47,10.9S45.43,62.35,47.2,72c5.07,8.37,9.64,15.09,23.58,45.13,7.23,8,6.47,8.37,9.51,22.94,3.42,9.64,6.46,15.72,10.65,29.66,2.83,9.45,4.79,16.22,5.76,19.61a2.16,2.16,0,0,0,3,1.36c2.22-1,6-2.66,10.91-4.49,8.24-3,14.33-6.71,16.67-10.26s3.55-5.14,3.55-5.14-.57-29.22-.74-55.75-1.35-64.23-2.87-78.93-3-21.8-.17-25.35,7.44-9.3,14.2-10.14,24,2.53,27.38,23.15,5.41,83,5.75,107.49c1.85-18.59,2.36-43.43,1.35-75.55s-3.21-41.4,6.59-48,29.15-5.23,33.21,18.34a15.4,15.4,0,0,0,4-.84s6.17-13,13.95-13.27,14.45,2.79,19.6,13.52c7.61-6,13.69-7.52,20.45-4.22s11.58,13,9.55,26-17.85,54.79-16.39,96.6c.5,14.57,1.52,24.33-3.43,46.9s-5.19,33.84-7.09,44c2.15,4.19.25,9.13-1.91,14.45,4.19,2.41,3.93,11.16-2.4,19.4a18,18,0,0,0,.25,7.35c.63,2.28.38,8.75-3.17,12-.13,2.79-1.52,4.44-1.27,7s-2,6.09-2,6.09,1.27,6.21-6.46,10.27c-1.77,4.05-6.08,8-14.32,10-.26,2.41-2.67,2.54-4.57,3.42s-3.29.76-6.72.51c-2.15,1.65-5.83,2.66-10.26,3-.13,2.16-1.27,2.54-2.29,2.79S198,333.32,198,333.32Z"/></g></g></svg>